# xmcd
#
# Track frame offsets: 
#        150
#        10006
#        25301
#        34744
#        43780
#        52903
#        62897
#        70499
#        84497
#        95279
#        108080
#        118426
#        130159
#        139274
#        149499
#        158578
#
# Disc length: 2260 seconds
#
# Revision: 0
# Processed by: cddbd v1.5.2PL0 Copyright (c) Steve Scherf et al.
# Submitted via: ExactAudioCopy v0.99pb3
#
DISCID=dd08d210
DTITLE=Jim Reeves - Evening Prayer
DYEAR=2004
DGENRE=Country
TTITLE0=Snow Flake
TTITLE1=The Blizzard
TTITLE2=Billy Bayou
TTITLE3=I Won't Forget You
TTITLE4=Beyond the Shadows of a Doubt
TTITLE5=Evening Prayer
TTITLE6=In a Mansion Stands My Love
TTITLE7=This is It
TTITLE8=I Guess I'm Crazy
TTITLE9=Distant Drums
TTITLE10=Am I Losing You
TTITLE11=Yonder Comes a Sucker
TTITLE12=You're Free to Go
TTITLE13=I'm Getting Better
TTITLE14=Overnight
TTITLE15=Satan Can't Hold Me
EXTD=
EXTT0=
EXTT1=
EXTT2=
EXTT3=
EXTT4=
EXTT5=
EXTT6=
EXTT7=
EXTT8=
EXTT9=
EXTT10=
EXTT11=
EXTT12=
EXTT13=
EXTT14=
EXTT15=
PLAYORDER=
